<svg width="24" height="24" viewBox="0 0 24 24" fill="none" xmlns="http://www.w3.org/2000/svg">
<path d="M12.0186 2.91003C8.70862 2.91003 6.01862 5.60003 6.01862 8.91003V11.8C6.01862 12.41 5.75862 13.34 5.44862 13.86L4.29862 15.77C3.58862 16.95 4.07862 18.26 5.37862 18.7C9.68862 20.14 14.3386 20.14 18.6486 18.7C19.8586 18.3 20.3886 16.87 19.7286 15.77L18.5786 13.86C18.2786 13.34 18.0186 12.41 18.0186 11.8V8.91003C18.0186 5.61003 15.3186 2.91003 12.0186 2.91003Z" stroke="#373A36" stroke-width="1.5" stroke-miterlimit="10" stroke-linecap="round"/>
<path d="M13.8719 3.19994C13.5619 3.10994 13.2419 3.03994 12.9119 2.99994C11.9519 2.87994 11.0319 2.94994 10.1719 3.19994C10.4619 2.45994 11.1819 1.93994 12.0219 1.93994C12.8619 1.93994 13.5819 2.45994 13.8719 3.19994Z" stroke="#373A36" stroke-width="1.5" stroke-miterlimit="10" stroke-linecap="round" stroke-linejoin="round"/>
<path d="M15.0195 19.0601C15.0195 20.7101 13.6695 22.0601 12.0195 22.0601C11.1995 22.0601 10.4395 21.7201 9.89953 21.1801C9.35953 20.6401 9.01953 19.8801 9.01953 19.0601" stroke="#373A36" stroke-width="1.5" stroke-miterlimit="10"/>
</svg>
