<svg width="21" height="22" viewBox="0 0 21 22" fill="none" xmlns="http://www.w3.org/2000/svg">
<g clip-path="url(#clip0_1814_2654)">
<path d="M18.043 7.89378C17.6547 6.19663 16.6918 4.68586 15.3172 3.61744C13.9426 2.54903 12.2409 1.98866 10.5004 2.03128H10.4917C8.75236 1.98789 7.05147 2.5469 5.67697 3.61364C4.30248 4.68039 3.33884 6.18934 2.9492 7.88503C1.92545 12.4 4.69045 16.2238 7.19295 18.63C8.07815 19.4886 9.26288 19.9688 10.4961 19.9688C11.7293 19.9688 12.914 19.4886 13.7992 18.63C16.3017 16.2238 19.0667 12.4088 18.043 7.89378ZM10.5004 12.2775C9.95532 12.2775 9.42242 12.1159 8.96916 11.813C8.5159 11.5102 8.16262 11.0797 7.95401 10.576C7.74539 10.0724 7.69081 9.51822 7.79716 8.98356C7.90351 8.4489 8.16602 7.95778 8.55149 7.57231C8.93695 7.18685 9.42807 6.92434 9.96273 6.81799C10.4974 6.71164 11.0516 6.76622 11.5552 6.97483C12.0589 7.18345 12.4893 7.53672 12.7922 7.98999C13.095 8.44325 13.2567 8.97614 13.2567 9.52128C13.2567 10.2523 12.9663 10.9533 12.4494 11.4702C11.9325 11.9871 11.2315 12.2775 10.5004 12.2775Z" fill="#373A36"/>
</g>
<defs>
<clipPath id="clip0_1814_2654">
<rect width="21" height="21" fill="white" transform="translate(0 0.5)"/>
</clipPath>
</defs>
</svg>
